<svg width="116" height="25" viewBox="0 0 116 25" fill="none" xmlns="http://www.w3.org/2000/svg">
<g clip-path="url(#clip0_1_308)">
<path d="M0 12.3126V24.6157H2.51007H5.02014V19.6157V14.5862L6.94384 14.6453L8.86754 14.7043L11.82 19.6453L14.7518 24.5862L17.6425 24.6157C19.2062 24.6157 20.5023 24.5764 20.5023 24.5173C20.5023 24.4582 19.165 22.1748 17.5499 19.4484C15.9143 16.722 14.5563 14.4484 14.5152 14.3795C14.4741 14.3008 14.9678 14.0055 15.6365 13.6807C17.1693 12.9523 18.7124 11.5842 19.3707 10.3441C20.2863 8.58226 20.3377 5.48187 19.453 3.83817C18.5375 2.13541 16.3978 0.698399 14.042 0.216114C13.3733 0.0783195 10.4209 -0.0102558 6.47063 -0.0102558H0V12.3126ZM13.3219 4.61573C14.4741 5.1177 15.0604 6.01337 15.0604 7.31258C15.0604 8.51337 14.5358 9.43856 13.5585 9.95037C12.9721 10.2456 12.2417 10.3244 8.96013 10.3736L5.03043 10.4523V7.32242V4.1925H8.7441C11.9434 4.21218 12.5709 4.27124 13.3219 4.61573Z" fill="black"/>
<path d="M79.8809 12.5197V24.626H82.2881H84.6953V12.5197V0.413372H82.2881H79.8809V12.5197Z" fill="black"/>
<path d="M106.472 11.7514C106.534 21.0821 106.534 21.1215 107.017 22.0565C107.562 23.1195 108.859 24.3203 109.908 24.7337C110.36 24.9109 111.41 25.0093 112.912 25.0093H115.216V23.0112V21.0132H113.879C112.86 21.0132 112.438 20.9148 111.996 20.59L111.451 20.1864V15.4817V10.8065H113.333H115.216V8.90692V7.00731H113.333H111.451V4.70416V2.40101H108.92H106.41L106.472 11.7514Z" fill="black"/>
<path d="M26.9325 6.98783C25.2352 7.52917 24.083 8.21814 22.8588 9.44846C21.6038 10.7477 21.0174 11.7516 20.5956 13.4544C19.4743 18.0213 21.5318 22.3914 25.7187 24.291C27.0148 24.8914 27.1794 24.9209 29.7924 24.9209C32.1276 24.9209 32.6831 24.8618 33.7221 24.4485C35.1829 23.8874 37.1374 22.2437 37.909 20.8855L38.4542 19.9111L36.7774 18.976C35.8618 18.4544 35.0286 18.041 34.936 18.041C34.8537 18.041 34.4936 18.4445 34.1233 18.917C33.29 20.0784 32.1584 20.7772 30.78 21.0429C29.5558 21.2693 28.6608 21.1414 27.6012 20.6197C26.3462 20.0193 25.0911 18.4445 25.0911 17.4406C25.0911 17.037 25.1734 17.037 31.9938 17.037H38.8965V15.3638C38.8965 11.5252 37.0448 8.69058 33.5678 7.22405C32.0761 6.55476 28.6196 6.45633 26.9325 6.98783ZM32.5802 10.8953C33.1254 11.2595 33.6501 11.8303 33.9793 12.4996L34.5245 13.5233L29.885 13.5823C27.3337 13.6118 25.2043 13.5823 25.1426 13.5233C24.8545 13.2477 26.3565 11.4563 27.4058 10.8559C28.4756 10.226 28.6608 10.1965 30.1524 10.2555C31.4692 10.3146 31.8498 10.3933 32.5802 10.8953Z" fill="black"/>
<path d="M64.8499 6.91907C62.1547 7.64741 59.6652 9.54701 58.6467 11.6828C57.9163 13.2478 57.5975 15.6494 57.9164 17.4604C58.729 22.1947 62.381 25.0293 67.7406 25.0293C70.8782 25.0293 72.9665 24.301 74.9931 22.5687C76.1658 21.545 76.9579 20.2655 77.4723 18.5431C77.9146 17.0765 77.8117 13.8088 77.2871 12.4112C76.423 10.1474 74.1495 8.05095 71.5777 7.17497C69.9832 6.61395 66.465 6.486 64.8499 6.91907ZM69.9421 11.3876C72.8739 12.6277 73.8409 16.3679 71.8658 18.8482C70.4667 20.61 67.5143 21.2695 65.5289 20.2754C64.4487 19.7143 63.2657 18.4742 62.9365 17.5096C62.5147 16.3088 62.7616 14.173 63.42 13.238C64.9013 11.0923 67.4731 10.3738 69.9421 11.3876Z" fill="black"/>
<path d="M38.7511 7.29322C38.8128 7.43102 40.4896 11.3976 42.475 16.0924L46.0961 24.6357L48.3696 24.5767L50.643 24.5176L54.1715 16.2105C56.1158 11.6436 57.7618 7.7066 57.8338 7.44086L57.9675 6.97826L55.4163 7.03732L52.8445 7.09637L50.6225 12.7361C49.4086 15.8365 48.349 18.3168 48.2873 18.2381C48.205 18.1594 47.1763 15.6003 45.983 12.5393L43.8124 6.99794H41.22C39.1317 7.01763 38.6585 7.07668 38.7511 7.29322Z" fill="black"/>
<path d="M87.1934 12.4799C87.1934 15.5606 87.2962 18.4543 87.43 19.1236C87.8826 21.5645 89.2508 23.2476 91.5757 24.3007C92.913 24.9011 93.0673 24.9307 95.7831 24.9307C98.4372 24.9307 98.6841 24.8913 99.8569 24.3696C102.182 23.3362 103.663 21.5055 104.116 19.1334C104.249 18.474 104.352 15.5704 104.352 12.4897V7.02712H101.976H99.5688L99.5071 12.47C99.4454 17.6964 99.4248 17.972 98.9619 18.7692C98.2932 19.97 97.1616 20.4917 95.4745 20.3933C93.9726 20.3145 93.1085 19.8224 92.5221 18.6905C92.1724 18.0114 92.1312 17.3322 92.0695 12.4602L92.0078 7.01728H89.6006H87.2242V12.4799H87.1934Z" fill="black"/>
</g>
<defs>
<clipPath id="clip0_1_308">
<rect width="115.216" height="25" fill="white"/>
</clipPath>
</defs>
</svg>
